<?xml version="1.0" encoding="UTF-8" standalone="no"?>
<!-- This Source Code Form is subject to the terms of the Mozilla Public
   - License, v. 2.0. If a copy of the MPL was not distributed with this
   - file, You can obtain one at http://mozilla.org/MPL/2.0/. -->

<svg
   xmlns:dc="http://purl.org/dc/elements/1.1/"
   xmlns:cc="http://creativecommons.org/ns#"
   xmlns:rdf="http://www.w3.org/1999/02/22-rdf-syntax-ns#"
   xmlns:svg="http://www.w3.org/2000/svg"
   xmlns="http://www.w3.org/2000/svg"
   xmlns:sodipodi="http://sodipodi.sourceforge.net/DTD/sodipodi-0.dtd"
   xmlns:inkscape="http://www.inkscape.org/namespaces/inkscape"
   width="32"
   height="32"
   viewBox="0 0 16 16"
   version="1.1"
   id="svg4"
   sodipodi:docname="movetab-16.svg"
   inkscape:version="0.92.2 (5c3e80d, 2017-08-06)">
  <metadata
     id="metadata10">
    <rdf:RDF>
      <cc:Work
         rdf:about="">
        <dc:format>image/svg+xml</dc:format>
        <dc:type
           rdf:resource="http://purl.org/dc/dcmitype/StillImage" />
        <dc:title></dc:title>
        <cc:license
           rdf:resource="https://www.mozilla.org/en-US/MPL/2.0/" />
      </cc:Work>
    </rdf:RDF>
  </metadata>
  <defs
     id="defs8" />
  <sodipodi:namedview
     pagecolor="#ffffff"
     bordercolor="#666666"
     borderopacity="1"
     objecttolerance="10"
     gridtolerance="10"
     guidetolerance="10"
     inkscape:pageopacity="0"
     inkscape:pageshadow="2"
     inkscape:window-width="640"
     inkscape:window-height="480"
     id="namedview6"
     showgrid="true"
     inkscape:snap-smooth-nodes="true"
     showborder="false"
     inkscape:snap-bbox="true"
     inkscape:bbox-nodes="true"
     showguides="true"
     inkscape:guide-bbox="true"
     inkscape:current-layer="svg4">
    <inkscape:grid
       type="xygrid"
       id="grid817"
       empspacing="2"
       enabled="true" />
    <inkscape:grid
       type="xygrid"
       id="grid4532"
       originx="0.5"
       originy="0.5"
       color="#ff3f3f"
       opacity="0.1254902"
       empcolor="#ff3f3f"
       empopacity="0.25098039"
       dotted="true" />
    <sodipodi:guide
       position="0,16"
       orientation="0,1"
       id="guide4537"
       inkscape:locked="false" />
    <sodipodi:guide
       position="0,0"
       orientation="1,0"
       id="guide4539"
       inkscape:locked="false" />
    <sodipodi:guide
       position="16,0"
       orientation="0,1"
       id="guide4541"
       inkscape:locked="false" />
    <sodipodi:guide
       position="16,16"
       orientation="1,0"
       id="guide4543"
       inkscape:locked="false" />
  </sodipodi:namedview>
  <path
     style="opacity:1;fill:#000000;fill-opacity:1;stroke:none;stroke-width:2;stroke-linecap:round;stroke-linejoin:bevel;stroke-miterlimit:4;stroke-dasharray:none;stroke-opacity:1;paint-order:markers stroke fill"
     d="M 20 2 C 18.892 2 18 2.892 18 4 C 18 5.108 18.892 6 20 6 L 25.171875 6 L 19.171875 12 L 22 12 C 22.80627 12 23.552913 12.241226 24.179688 12.648438 L 28 8.828125 L 28 14 C 28 15.108 28.892 16 30 16 C 31.108 16 32 15.108 32 14 L 32 4 C 32 3.446 31.777516 2.9454844 31.416016 2.5839844 C 31.054516 2.2224844 30.554 2 30 2 L 20 2 z M 24.179688 12.648438 L 17.414062 19.414062 A 2 2 0 0 1 16 20 A 2 2 0 0 1 14 18 A 2 2 0 0 1 14.585938 16.585938 L 19.171875 12 L 8 12 C 5.784 12 4 13.784 4 16 L 4 26 L 2 26 C 0.892 26 0 26.892 0 28 C 0 29.108 0.892 30 2 30 L 28 30 C 29.108 30 30 29.108 30 28 C 30 26.892 29.108 26 28 26 L 26 26 L 26 16 C 26 14.59027 25.275577 13.36043 24.179688 12.648438 z "
     transform="scale(0.5)"
     id="rect818" />
</svg>
